<svg width="1300" height="1300" viewBox="0 0 1300 1300" fill="none" xmlns="http://www.w3.org/2000/svg">
<mask id="mask0_409_3679" style="mask-type:alpha" maskUnits="userSpaceOnUse" x="0" y="0" width="1296" height="1296">
<circle cx="647.869" cy="647.869" r="647.869" fill="#D9D9D9"/>
</mask>
<g mask="url(#mask0_409_3679)">
<path d="M1003.04 1182.75C1000.07 1184.87 996.667 1186.99 993.693 1189.12C990.295 1191.24 987.321 1193.37 983.922 1195.07C980.948 1196.76 978.399 1198.46 975.425 1200.16C975 1200.59 974.576 1200.59 974.151 1201.01C964.38 1206.96 954.183 1212.48 943.987 1217.58C941.013 1219.28 937.615 1220.98 934.641 1222.26C934.641 1222.26 934.216 1222.68 933.791 1222.68C930.393 1224.38 926.994 1226.08 923.595 1227.78C916.798 1231.18 909.576 1234.15 902.778 1237.12C899.38 1238.82 895.556 1240.1 892.157 1241.37C888.759 1242.65 884.935 1244.35 881.536 1245.62C878.138 1246.9 874.314 1248.59 870.915 1249.87C870.915 1249.87 870.915 1249.87 870.491 1249.87C867.092 1251.14 863.268 1252.42 859.87 1253.69C852.223 1256.24 844.151 1258.79 836.504 1261.34C833.955 1262.19 830.981 1263.04 828.432 1263.89C820.36 1266.44 812.288 1268.56 804.216 1270.26C801.242 1271.11 798.268 1271.54 794.87 1272.39C787.223 1274.09 779.151 1275.78 771.504 1277.48C769.804 1277.91 768.53 1277.91 766.831 1278.33C764.281 1278.76 761.308 1279.18 758.759 1279.61C754.935 1280.03 751.536 1280.88 747.713 1281.31C746.013 1281.73 744.314 1281.73 742.615 1282.16C740.491 1282.58 737.942 1283.01 735.393 1283.01C728.595 1283.86 721.373 1284.71 714.576 1285.56C712.451 1285.98 709.902 1285.98 707.778 1286.41H707.353C704.38 1286.83 701.406 1286.83 698.432 1287.25C695.458 1287.68 692.484 1287.68 689.51 1287.68C687.811 1287.68 685.687 1288.1 683.987 1288.1C680.589 1288.1 677.615 1288.53 674.641 1288.53C670.393 1288.53 666.569 1288.95 662.321 1288.95C658.072 1288.95 654.249 1288.95 650 1288.95C647.027 1288.95 644.053 1288.95 641.079 1288.95C461.798 1286.41 300.785 1210.36 185.654 1089.71C185.654 1089.71 185.654 1089.28 185.229 1089.28C172.484 1077.81 183.53 1016.63 234.935 977.974C299.51 929.118 454.151 898.53 454.151 898.53C454.151 898.53 514.053 888.758 736.242 935.066C866.242 962.255 965.229 1001.76 1020.46 1108.82C1031.93 1130.92 1043.4 1164.9 1003.04 1182.75Z" fill="white"/>
<path d="M737.517 930.392C819.086 946.961 906.177 964.804 973.301 1018.76C995.818 1037.03 1010.69 1063.79 1023.01 1089.71C1028.96 1102.45 1034.9 1115.62 1039.58 1129.64C1042.12 1138.99 1045.95 1149.61 1043.82 1160.65C1043.4 1163.63 1040.85 1167.45 1038.73 1169.58C1028.96 1179.35 1018.33 1185.29 1007.71 1192.94C945.262 1236.27 873.465 1266.86 799.118 1283.01C633.432 1319.12 454.151 1291.08 308.432 1203.99C260.001 1174.67 215.393 1138.99 177.158 1096.93C172.909 1091.83 172.909 1083.33 172.909 1077.81C173.334 1065.07 176.733 1052.75 180.981 1041.27C191.177 1014.93 204.347 988.595 226.863 970.327C243.007 959.281 260.426 949.935 278.269 942.288C334.347 918.497 393.399 901.928 454.151 895.131C459.249 894.706 460.099 901.928 455.001 902.778C396.798 914.673 339.02 932.516 285.066 956.732C265.524 966.503 244.707 975 228.988 990.294C214.118 1006.44 203.497 1026.41 195.001 1046.8C189.478 1059.12 185.654 1078.66 187.354 1088.43C214.118 1120.29 245.556 1148.33 279.543 1172.55C465.622 1302.55 748.138 1311.05 946.112 1202.71C963.955 1192.94 981.373 1181.9 997.942 1170.42C1006.01 1164.9 1014.51 1160.23 1020.88 1153.86C1021.31 1153.43 1020.88 1153.86 1020.88 1154.28C1020.88 1154.71 1020.46 1155.13 1020.46 1155.13C1020.88 1150.03 1019.18 1143.24 1017.06 1136.44C1009.41 1111.8 997.092 1085.88 983.922 1063.37C963.105 1029.8 927.844 1008.56 892.158 991.569C867.517 980.098 841.602 971.177 815.262 962.68C788.922 954.183 762.158 946.961 735.393 940.588C728.596 938.889 730.72 929.118 737.517 930.392Z" fill="black"/>
<path d="M1144.08 1446.15H69.6709C69.6709 1446.15 119.802 1283.86 157.612 1133.89C172.481 1075.26 200.096 995.393 234.083 972.027C280.815 939.74 358.135 921.472 392.971 909.152C417.187 900.655 435.88 897.681 453.298 893.008C453.298 895.132 453.723 896.831 453.723 898.956C453.723 898.956 492.383 985.622 611.762 1033.63C709.05 1073.14 743.037 1057.42 751.958 1013.66C757.481 985.622 771.501 979.25 762.579 964.38C757.481 960.132 754.083 953.759 752.383 947.387L748.985 933.367C757.056 931.668 764.703 929.544 772.351 926.995C774.9 926.145 777.024 925.295 779.573 924.446C826.73 951.21 891.73 959.707 970.324 1017.48C984.344 1027.68 1025.13 1071.86 1042.12 1179.35C1065.91 1320.82 1144.08 1446.15 1144.08 1446.15Z" fill="black"/>
<path d="M1151.73 1450.39C832.679 1451.67 384.052 1455.92 69.6725 1455.07C64.5745 1455.07 60.751 1451.24 60.751 1446.14C73.0712 1393.46 93.0386 1317.42 106.633 1264.31C117.254 1221.41 130.424 1173.4 141.045 1130.07C156.339 1073.56 175.457 1000.07 223.463 962.68C239.182 952.484 256.601 945.262 273.169 938.889C309.705 925.294 347.091 915.098 384.476 903.628C405.718 895.556 429.509 890.458 451.601 884.085C456.274 882.811 460.947 885.36 462.221 889.608C462.646 890.882 462.646 896.405 463.071 897.68L454.15 889.608C457.548 889.608 460.947 891.732 462.221 894.706C465.62 901.928 470.293 909.575 474.967 916.373C519.999 981.373 592.646 1023.01 668.267 1042.55C689.934 1047.22 718.823 1052.75 734.542 1033.63C744.738 1020.46 744.313 1000.07 752.385 985.621C755.359 978.824 758.757 974.575 755.359 968.628L757.058 970.752C751.535 965.654 747.287 959.281 745.163 952.484C743.463 946.111 742.189 940.588 740.914 935.065C739.64 930.392 743.038 925.294 747.712 924.445C757.483 922.32 767.679 919.347 777.025 915.948C779.574 915.098 782.123 915.523 784.248 916.373C796.568 921.895 809.313 926.569 822.483 931.242C863.692 944.412 904.901 958.431 942.712 980.098C955.457 987.32 967.777 995.392 979.672 1003.89C993.692 1014.51 1002.61 1026.41 1011.54 1040.42C1043.82 1090.98 1054.02 1149.18 1064.64 1206.96C1080.78 1281.73 1108.82 1353.95 1141.96 1422.78L1146.63 1432.12L1148.76 1436.8L1150.03 1438.92L1150.46 1440.2L1150.88 1440.62C1150.88 1440.2 1151.31 1441.05 1151.73 1442.32C1153.43 1445.29 1153.01 1448.69 1151.73 1450.39ZM1136.44 1441.9C1135.16 1443.59 1134.74 1446.57 1135.59 1448.69C1136.01 1449.97 1136.44 1450.82 1136.44 1450.39L1136.01 1449.97L1135.16 1448.69L1133.89 1446.57C1105.85 1398.56 1082.48 1348.01 1064.21 1295.75C1052.32 1261.76 1042.55 1227.35 1036.18 1191.67C1028.53 1144.51 1016.63 1095.23 991.143 1054.44C984.346 1043.82 975.849 1032.35 965.653 1024.71C954.182 1016.63 942.712 1008.56 930.816 1001.76C907.025 987.32 881.535 975.85 855.62 965.654C829.705 955.033 802.091 946.961 776.176 932.092L783.398 932.516C773.202 936.34 762.581 939.314 751.535 941.438L758.333 930.817C760.882 940.164 761.306 951.209 768.953 957.582C773.627 962.68 775.751 971.601 774.476 978.824C773.202 985.196 770.653 989.445 768.953 993.268C765.13 1001.34 762.581 1008.14 760.882 1017.06C746.012 1090.98 660.62 1062.52 612.189 1043.4C544.215 1016.21 480.914 968.628 446.503 902.778L454.574 907.876C449.901 907.876 446.078 904.477 445.653 899.804L445.228 894.281L456.274 901.928C432.483 906.177 411.241 909.575 389.15 917.647C338.594 933.366 284.64 946.536 240.882 976.699C195.424 1009.84 169.509 1127.52 155.065 1181.9C139.346 1241.8 122.777 1301.27 105.359 1360.33C96.4372 1390.07 87.5157 1419.38 78.1693 1449.12L69.6725 1437.65C378.104 1437.22 823.757 1439.35 1136.44 1441.9Z" fill="black"/>
<path d="M713.298 1065.49C713.723 1065.92 713.723 1065.92 714.148 1066.34C714.148 1065.92 714.148 1065.49 714.148 1065.49C714.148 1065.49 713.723 1065.49 713.298 1065.49Z" fill="white"/>
<path d="M814.838 907.877C814.838 907.877 814.837 867.093 779.151 856.472C713.302 836.505 588.824 827.583 505.556 827.583C505.556 827.583 470.295 830.132 457.55 836.505C445.23 842.452 430.36 846.276 426.962 873.89C425.262 887.485 425.262 909.152 425.687 928.269C426.112 953.759 436.308 978.4 454.151 996.668C482.615 1025.98 541.668 1064.22 609.217 1075.69C771.929 1102.88 816.112 1031.93 814.838 994.119C813.138 950.361 814.838 907.877 814.838 907.877Z" fill="black"/>
<path d="M805.916 907.452C805.066 889.184 795.295 869.642 776.602 864.543C770.655 862.844 764.707 861.145 759.184 859.87C676.341 841.602 590.524 837.354 505.557 836.079C494.511 837.354 473.269 839.053 460.949 844.151C455.851 846.7 449.478 849.249 445.23 852.648C435.459 861.145 435.034 876.014 434.609 889.184C434.184 896.831 434.184 904.478 434.184 912.125C431.635 963.955 454.576 991.57 495.785 1019.18C526.798 1040.43 561.635 1055.72 598.596 1064.22C649.151 1073.99 705.23 1078.66 753.661 1059.12C779.151 1048.92 802.942 1027.26 805.916 999.217C806.341 993.269 805.916 983.073 805.916 977.125C805.066 955.034 805.066 929.968 805.916 907.452ZM823.334 907.877C822.91 930.393 822.91 954.609 823.334 977.125C823.334 984.347 824.184 994.543 823.334 1001.34C819.511 1037.03 791.047 1063.79 760.034 1076.54C711.178 1096.93 656.798 1093.53 605.818 1085.46C594.772 1083.33 581.178 1080.36 570.557 1076.96C524.674 1062.09 481.766 1038.3 447.354 1004.31C422.713 980.099 413.367 946.112 415.491 912.55C416.766 887.91 412.517 858.596 432.91 839.478C439.282 834.38 445.655 831.406 452.452 828.432C469.87 821.635 486.864 820.36 504.707 818.661C562.06 819.086 619.413 822.06 676.766 828.857C710.753 833.106 745.164 837.779 778.302 847.55L780.851 848.4L783.825 849.674C798.694 856.896 805.066 872.615 813.563 885.36C819.086 892.158 822.91 899.38 823.334 907.877Z" fill="black"/>
<path d="M428.66 927.844C438.006 1064.22 648.3 1209.94 773.202 1134.31C805.915 1112.22 814.836 1070.16 813.986 1033.2C813.986 1020.46 812.712 1007.71 811.862 994.544C811.437 991.57 816.535 990.72 816.96 993.694C834.803 1065.07 825.882 1144.09 742.614 1165.33C625.784 1193.79 493.235 1107.98 441.83 1005.16C429.934 981.374 422.287 955.034 421.862 928.694C422.287 924.446 428.235 923.596 428.66 927.844Z" fill="white"/>
<path d="M777.449 1043.4C768.527 1087.16 710.749 1113.5 613.462 1073.99C512.351 1033.2 468.593 935.915 457.547 907.027C517.449 794.87 475.815 717.125 475.815 717.125C613.887 705.229 734.54 866.667 734.54 866.667L753.233 946.536C754.933 953.334 758.331 959.281 763.429 963.53C772.351 979.249 782.972 1015.36 777.449 1043.4Z" fill="white"/>
<path d="M455.425 908.301C463.497 895.981 468.595 881.536 471.993 867.517C478.366 838.203 480.49 808.465 480.915 778.726V767.68C479.64 756.634 475.817 745.164 471.568 734.968C466.046 721.373 486.013 712.876 492.385 726.471C493.235 728.17 493.235 731.144 493.235 732.844C494.51 790.621 497.059 864.968 460.523 912.974C457.974 915.523 452.876 911.7 455.425 908.301Z" fill="black"/>
<path d="M739.214 865.818C745.587 869.641 747.711 874.739 748.561 879.837C751.11 890.033 750.26 901.079 752.809 911.7C754.933 921.896 761.306 931.667 763.005 942.288C765.129 953.334 771.502 976.7 774.051 988.171C774.901 990.72 773.201 993.694 770.227 994.118C768.528 994.543 767.254 994.118 765.979 993.269C760.456 988.596 757.907 983.922 754.509 977.975C748.986 967.778 745.162 958.432 741.763 946.961C738.79 936.765 740.064 925.72 737.515 915.099C735.391 904.903 729.443 895.131 727.319 884.51C726.044 879.412 725.62 873.89 729.443 867.517C731.992 864.968 736.241 864.118 739.214 865.818Z" fill="black"/>
<path d="M769.804 977.974C688.66 973.726 622.386 948.236 557.811 833.105C612.19 881.112 676.34 899.379 743.889 907.876L752.81 946.961C754.51 953.758 764.706 973.726 769.804 977.974Z" fill="black"/>
<path d="M766.407 962.255C780.851 989.445 789.348 1023.43 780.426 1053.6C773.629 1074.84 754.087 1090.56 732.845 1096.5C683.564 1109.67 626.636 1088.86 582.877 1065.49C528.923 1035.33 488.989 984.772 463.498 929.543C461.799 925.295 467.747 921.896 470.296 926.144C479.217 943.987 489.413 961.406 500.884 977.125C512.355 993.268 525.524 1008.14 540.394 1021.31C583.727 1060.39 642.355 1084.61 700.982 1084.61C761.309 1082.91 784.25 1051.05 770.23 992.419C768.106 983.072 764.707 973.301 760.034 965.229C757.485 961.83 763.858 958.007 766.407 962.255Z" fill="black"/>
<path d="M930.818 452.027C938.465 487.713 942.289 516.602 921.472 611.765C901.079 706.504 940.589 802.092 840.328 889.183C772.779 947.811 654.674 958.857 560.361 894.706C528.498 873.04 520.001 771.929 494.936 733.268C484.315 717.125 477.942 743.04 453.727 716.275C420.165 679.739 379.805 606.242 399.772 476.242C432.06 265.523 599.021 240.883 722.648 264.249C846.7 287.615 910.426 358.138 930.818 452.027Z" fill="white"/>
<path d="M474.542 753.66C464.771 737.517 452.451 723.497 440.98 708.628C423.987 685.687 411.242 659.347 402.745 632.157C366.209 515.752 385.751 364.085 493.66 291.438C593.497 223.889 784.248 244.281 871.765 325.85C915.523 365.36 939.738 422.713 944.836 480.49C947.385 519.151 938.039 556.536 929.967 593.922C920.621 630.458 918.497 666.994 918.497 704.804C918.072 742.615 916.372 782.125 901.928 817.811C879.836 872.19 833.529 916.373 777.876 935.066C704.804 960.556 618.562 946.111 558.66 897.255C556.111 895.131 558.66 891.732 561.634 893.007C640.229 937.615 743.464 945.262 819.934 893.857C865.392 863.268 896.83 814.837 904.052 760.458C910 723.497 908.301 686.111 911.699 648.726C912.974 632.157 917.647 609.216 921.046 592.647C926.144 565.033 929.542 537.419 929.117 509.804C928.693 482.615 922.745 455.85 914.673 429.935C886.634 337.745 806.34 283.366 713.725 268.497C575.229 244.281 454.15 295.687 418.039 439.706C402.32 510.229 390 587.974 419.738 656.373C430.359 682.288 447.778 704.379 467.745 723.497L487.287 744.314C495.784 752.811 481.34 763.857 474.542 753.66Z" fill="black"/>
<path d="M524.671 618.562C524.671 618.562 511.501 554.837 449.475 562.484C395.945 569.281 377.253 697.582 498.756 733.268" fill="white"/>
<path d="M493.234 677.614C483.463 672.092 476.666 662.745 476.241 651.275C476.666 642.778 477.94 633.007 475.816 624.51C474.541 616.438 466.045 614.314 459.672 614.739C452.875 616.013 448.626 624.51 447.352 631.307C447.352 631.732 446.927 633.007 446.927 633.431C446.502 635.556 443.103 635.556 442.254 633.431C436.731 616.863 449.051 598.595 466.894 600.719C491.96 602.418 495.358 628.758 490.685 648.726C488.136 657.222 491.535 664.869 496.208 672.092L497.058 673.366C499.182 675.915 495.783 679.314 493.234 677.614Z" fill="black"/>
<path d="M833.103 573.53C839.476 603.693 851.371 631.732 866.24 658.072C879.41 690.36 845.423 720.948 815.26 719.673C811.861 719.673 811.436 715 814.41 714.151C833.528 708.203 850.946 695.458 853.92 675.915C855.194 669.968 853.495 664.87 850.521 659.772C836.502 633.432 828.005 603.268 830.129 573.53C830.129 571.405 833.103 571.405 833.103 573.53Z" fill="black"/>
<path d="M522.549 618.987C512.777 593.922 491.536 570.131 463.072 570.556C460.523 570.131 456.274 570.98 453.725 570.98C446.503 571.405 440.555 573.954 435.032 579.052C407.843 606.242 412.516 654.248 434.608 684.412C442.255 695.033 452.026 704.379 463.072 712.026C474.117 719.673 486.438 725.621 499.608 730.719C502.581 731.569 501.307 736.242 498.333 735.817C469.869 729.869 442.679 715.85 423.987 692.484C395.098 657.647 389.15 599.445 423.562 565.458C431.209 558.66 441.83 553.562 452.451 553.562C455.849 553.562 460.947 552.713 464.346 553.562C482.189 554.412 499.183 563.333 510.228 577.353C520 589.248 525.523 603.693 527.222 618.137C527.222 620.686 523.398 621.536 522.549 618.987Z" fill="black"/>
<path d="M802.092 762.582C801.242 769.804 800.817 774.902 799.543 779.151C794.445 801.667 784.249 790.621 765.556 791.046C742.19 791.471 702.255 813.987 693.758 783.824C692.059 778.301 691.209 773.203 690.785 768.53C686.536 726.046 728.17 740.066 769.804 756.21C785.948 763.007 796.144 763.432 802.092 762.582Z" fill="white"/>
<path d="M799.544 782.124L788.498 779.575C786.799 779.151 787.224 777.026 788.923 776.602L800.394 775.752C804.642 775.752 804.217 782.974 799.544 782.124Z" fill="black"/>
<path d="M814.837 757.059C806.765 769.804 788.497 765.131 776.601 761.732C758.758 756.634 702.255 727.745 693.333 754.085C690.784 762.582 692.484 772.353 694.183 781.275C695.458 787.223 698.007 793.17 703.529 796.144C712.026 800.392 721.373 798.268 730.294 795.719C743.039 792.321 754.51 786.798 768.105 786.798C774.902 786.798 781.699 788.922 786.797 788.922C789.346 788.922 790.196 788.497 791.471 787.223C792.745 785.948 794.02 782.974 794.869 780.425C796.569 774.902 797.843 768.53 799.118 762.582C799.543 760.883 800.817 760.033 802.516 760.458C803.791 760.883 804.641 761.732 804.641 763.007C804.641 767.68 804.216 772.778 803.791 777.451C801.242 795.294 794.445 801.242 776.177 796.994C754.085 793.595 734.118 804.216 711.177 802.092C704.379 801.667 696.732 797.844 692.484 791.471C690.36 788.497 689.085 784.674 687.81 782.125C683.987 772.353 679.739 761.308 682.288 750.262C692.909 716.275 739.216 736.242 761.307 745.589C773.628 750.687 799.967 765.556 810.588 754.085C812.713 752.811 815.686 754.935 814.837 757.059Z" fill="black"/>
<path d="M691.636 763.432C701.832 763.007 720.1 756.634 727.747 767.68C729.021 769.38 729.446 769.804 731.57 769.804C734.544 769.38 738.368 767.255 741.767 768.955C747.289 770.229 753.237 771.504 758.76 772.778C760.035 773.203 760.884 774.053 760.459 775.327C760.035 776.602 759.185 777.451 757.91 777.027C751.538 776.177 745.165 776.177 738.793 774.478C735.819 775.752 730.721 777.876 726.472 776.177C723.923 775.327 721.799 772.778 720.1 771.079C719.25 770.229 717.551 770.229 716.276 770.229C708.205 769.804 699.708 773.203 691.636 774.478C683.139 775.327 682.714 762.157 691.636 763.432Z" fill="black"/>
<path d="M712.027 593.922C689.086 592.222 667.844 582.451 650.001 568.007C646.602 565.458 650.426 560.36 653.825 562.909C666.995 571.405 681.439 577.353 697.158 579.902C702.256 580.752 707.779 581.177 712.452 581.177C720.949 581.177 720.949 594.347 712.027 593.922Z" fill="black"/>
<path d="M836.926 587.974C850.096 586.275 865.39 584.15 875.586 574.804C876.436 573.53 878.56 573.53 879.409 574.804C883.233 578.628 873.462 585 870.913 587.124C861.141 593.497 850.096 597.745 839.05 600.719C835.651 601.569 832.253 599.445 831.403 596.046C830.128 592.222 833.102 588.399 836.926 587.974Z" fill="black"/>
<path d="M732.418 554.836C740.49 559.51 750.686 553.137 751.111 543.366C751.111 538.268 750.261 532.745 746.862 528.072C736.666 514.477 686.96 493.66 652.549 502.581C622.81 510.229 695.457 533.595 732.418 554.836Z" fill="black"/>
<path d="M862.841 559.934C856.894 564.607 847.122 559.085 845.848 550.163C844.998 545.49 845.423 540.392 847.547 536.143C854.345 523.398 885.782 505.98 911.273 514.477C933.364 522.549 891.305 539.117 862.841 559.934Z" fill="black"/>
<path d="M664.019 573.104C660.621 576.078 658.496 580.752 658.072 585.425L657.647 597.32C657.222 607.516 664.869 616.013 674.64 616.438C684.836 616.863 693.333 609.216 693.758 599.444L694.183 587.549C694.183 587.124 694.183 586.699 694.183 586.274C682.712 585.425 673.366 580.752 664.019 573.104Z" fill="black"/>
<path d="M838.201 593.497C838.201 593.922 838.201 593.922 838.201 594.346L837.776 605.392C837.351 614.739 844.574 622.81 853.92 623.235C863.266 623.66 871.338 616.438 871.763 607.091L872.188 596.046C872.613 591.797 870.913 587.974 868.789 585C859.443 590.523 848.822 591.797 838.201 593.497Z" fill="black"/>
<path d="M934.217 467.745C933.367 462.647 932.093 457.549 931.243 452.026C926.57 431.209 919.772 411.667 910.851 393.399L860.72 414.216C846.276 420.164 830.132 421.863 814.413 419.314L615.589 384.902C591.374 380.654 568.008 394.674 559.936 417.615C553.988 434.183 544.642 457.549 536.995 474.118C476.668 483.889 456.7 469.445 408.269 446.928C404.446 445.229 398.923 439.706 394.674 437.582C402.321 398.922 373.008 237.484 409.544 195.425C421.864 181.406 434.184 179.706 446.08 183.955C473.694 193.726 462.223 188.203 482.191 166.961C498.334 150.392 518.727 135.948 543.792 135.523C556.112 135.098 565.883 137.647 573.955 142.321C599.446 156.34 630.459 151.667 653.4 134.249C660.622 129.151 668.269 125.752 676.766 125.752C689.086 125.752 700.132 130.85 709.053 137.647C726.047 150.392 748.563 153.366 769.38 149.118C770.655 148.693 771.929 148.693 773.204 148.693C778.302 148.693 783.825 149.968 788.498 152.092C806.341 159.739 826.308 160.589 844.151 152.941C852.648 149.543 862.844 149.543 873.04 159.314C885.785 171.634 902.354 179.706 920.197 180.131C924.87 180.131 930.818 182.255 938.04 186.928C941.439 189.477 944.413 194.151 946.537 200.523C949.936 210.294 958.008 217.517 968.204 220.491C974.576 222.615 979.25 228.987 980.524 243.432C984.348 288.889 944.838 430.785 934.217 467.745Z" fill="black"/>
<path d="M967.356 219.64C948.663 226.438 945.265 222.614 924.023 217.091C902.781 211.568 884.088 235.359 868.794 210.719C846.703 174.608 805.918 199.248 797.846 192.451C789.775 185.653 764.709 163.137 729.448 186.928C706.082 202.647 676.343 174.608 638.958 174.608C564.186 174.608 550.592 229.412 524.676 204.346C498.761 179.706 513.631 196.274 475.395 203.072C437.16 209.869 417.618 186.928 417.618 186.928C426.964 180.555 436.31 180.555 445.232 183.529C472.846 193.301 461.376 187.778 481.343 166.536C497.487 149.967 517.879 135.523 542.944 135.098C555.265 134.673 565.036 137.222 573.108 141.895C598.598 155.915 629.611 151.242 652.552 133.823C659.775 128.725 667.422 125.327 675.918 125.327C688.239 125.327 699.284 130.425 708.206 137.222C725.199 149.967 747.716 152.941 768.533 148.693C769.807 148.268 771.082 148.268 772.356 148.268C777.454 148.268 782.977 149.542 787.65 151.667C805.493 159.314 825.461 160.163 843.304 152.516C851.801 149.118 861.997 149.118 872.193 158.889C884.938 171.209 901.507 179.281 919.35 179.706C924.023 179.706 929.971 181.83 937.193 186.503C940.592 189.052 943.565 193.725 945.69 200.098C949.088 209.444 957.16 216.667 967.356 219.64Z" fill="black"/>
<path d="M521.277 596.045C521.277 598.594 517.878 599.869 516.604 597.32C506.832 579.477 487.29 557.81 449.904 562.483C404.872 568.006 384.479 659.346 450.754 709.477C466.473 720.947 483.041 727.32 488.139 729.444C489.414 729.869 489.839 731.143 489.839 731.993L485.59 761.731C485.166 763.431 483.466 765.13 482.192 763.856C467.323 746.862 461.375 737.516 425.689 700.555C399.773 673.79 370.46 635.98 366.636 573.104C363.662 517.875 376.832 474.542 393.401 439.281C393.826 438.006 395.525 437.581 396.8 438.006C452.878 463.921 473.695 478.79 534.022 469.869C536.146 469.444 537.421 471.568 536.571 473.267C529.773 486.437 522.976 497.058 515.754 502.156C494.937 518.3 519.153 557.385 521.277 596.045Z" fill="#D6D6D6"/>
<path d="M524.251 595.62C524.675 602.418 515.754 603.692 513.205 597.745C504.708 582.451 490.688 570.13 473.695 566.732C454.153 562.908 434.61 567.156 423.989 585.849C404.447 619.836 415.068 666.143 442.682 692.908C456.277 705.228 469.447 722.222 488.564 727.32C490.688 727.745 491.963 730.294 491.538 731.993V732.418V733.268V735.392V739.215C491.538 745.588 491.538 754.509 491.113 760.882C491.113 767.679 482.192 772.777 477.519 766.83C472.421 761.732 464.773 751.536 460.1 745.588C434.185 713.3 400.623 685.261 383.205 646.601C356.865 588.823 362.388 520.849 383.63 462.647C387.028 454.15 390.002 445.228 394.675 437.581C395.95 436.732 397.224 437.156 398.499 438.006C426.113 450.326 455.427 467.32 486.015 471.143C501.734 472.843 517.453 471.993 532.747 469.869C534.022 469.869 535.296 469.019 536.571 469.869C540.394 471.993 535.296 477.941 534.447 480.915C530.623 489.411 525.95 498.333 519.153 504.705C505.558 517.875 522.551 545.49 524.251 562.483C525.1 573.954 523.401 585 524.251 595.62ZM517.878 596.045C517.453 585.849 511.081 576.503 506.832 567.156C500.46 548.888 493.662 528.071 500.885 508.529C503.434 502.581 508.532 497.908 513.63 494.509C520.427 488.137 526.375 479.64 530.623 471.143C529.349 472.843 531.048 477.516 534.447 477.091C477.094 486.862 446.081 469.019 395.1 444.804L394.251 444.379C395.95 445.228 398.074 444.379 398.924 442.679V442.255C397.649 445.228 395.95 448.202 394.675 451.601C368.76 511.078 361.963 583.725 391.277 643.202C409.545 680.588 443.107 706.503 468.597 738.79C472.845 743.888 481.767 754.509 486.015 760.032C484.741 758.333 480.492 757.908 479.643 760.032L479.218 760.882C479.643 758.758 480.068 756.209 480.917 754.085C482.617 747.287 485.166 738.79 486.865 731.568C486.865 731.143 486.865 731.143 486.865 731.143C483.041 729.444 478.793 727.745 474.97 726.045C465.198 721.797 454.153 719.673 444.806 713.725C413.368 692.058 395.95 650 403.597 611.764C408.27 584.575 428.237 555.686 458.826 558.235C483.891 557.81 507.257 572.679 518.728 594.771L519.153 595.62C518.728 595.196 518.303 595.196 517.878 596.045Z" fill="black"/>
<path d="M521.702 497.059C519.577 499.183 517.878 501.307 515.754 502.582C510.656 506.405 508.107 511.928 507.257 518.301C480.917 519.575 443.107 508.529 429.937 504.281C426.963 503.431 425.264 500.882 425.264 497.909V495.784C425.264 491.111 429.512 488.137 433.76 488.987C463.499 497.059 520.002 497.059 521.702 497.059Z" fill="black"/>
<path d="M513.206 553.987C489.84 552.287 467.324 548.039 457.128 545.915C453.729 545.065 451.605 542.516 451.605 539.118C451.605 534.869 455.428 531.895 459.677 532.32C478.795 535.294 499.187 534.869 508.958 534.444C509.383 540.392 511.082 546.765 513.206 553.987Z" fill="black"/>
<path d="M477.092 631.732C477.092 631.732 443.105 626.634 445.654 674.216C446.928 698.431 446.928 711.601 446.503 718.399C446.078 723.072 449.052 727.32 453.301 729.02C458.399 731.144 463.922 729.02 466.471 723.922C470.294 717.124 474.543 707.778 474.543 700.131C474.543 687.386 488.137 675.915 488.137 675.915C488.137 675.915 475.817 665.294 477.092 631.732Z" fill="white"/>
<path d="M475.817 633.007C475.817 633.432 476.242 633.856 476.667 633.856C476.667 633.856 476.667 633.856 476.242 633.856H475.392C455 635.556 448.627 653.399 449.477 671.667C449.902 683.562 450.752 695.458 450.327 706.928C451.176 713.301 447.353 721.798 453.725 725.196C457.549 727.32 462.647 725.621 464.346 721.373C468.17 713.726 471.993 706.079 471.993 697.582C473.693 687.811 480.065 680.164 486.863 674.216V677.615C477.941 668.268 475.817 655.523 474.542 643.628C474.967 640.654 474.967 635.981 475.817 633.007ZM478.791 630.033C480.065 641.928 480.065 654.249 485.163 664.869C486.438 667.843 488.562 671.242 491.111 673.366C492.81 674.641 492.81 677.19 491.111 678.464C485.163 683.987 480.065 690.785 479.216 698.432C479.216 707.778 475.392 716.7 471.144 724.771C467.745 731.994 457.974 735.817 450.752 731.569C446.078 729.02 442.68 723.922 442.68 718.399C442.68 714.151 443.105 710.752 443.105 706.503C443.105 694.608 442.255 683.137 441.83 671.242C441.83 663.595 442.255 654.673 445.654 647.026C449.902 635.131 463.072 627.059 475.817 629.183C477.092 629.183 478.366 629.608 478.791 630.033Z" fill="black"/>
<path d="M471.569 1134.74C485.588 1073.56 467.32 1004.74 451.601 943.562C445.229 919.347 438.856 896.406 435.882 876.438C430.36 842.876 434.183 811.013 447.778 781.275C464.346 744.314 461.797 712.876 461.797 711.602L453.301 712.451C453.301 712.876 455.85 743.464 440.131 777.876C426.111 808.889 421.863 842.451 427.386 877.713C430.784 898.105 436.732 921.471 443.105 945.687C458.824 1005.59 476.667 1073.56 463.072 1132.61C455.425 1165.33 470.294 1218.86 491.536 1272.39C494.935 1272.81 497.909 1273.24 501.307 1273.66C479.641 1220.13 464.346 1166.18 471.569 1134.74Z" fill="black"/>
<path d="M446.929 698.856C447.353 708.203 446.929 714.575 446.929 718.399C446.504 723.072 449.478 727.321 453.726 729.02C458.824 731.144 464.347 729.02 466.896 723.922C470.719 717.124 474.968 707.778 474.968 700.131C474.968 699.706 474.968 698.856 474.968 698.432C466.471 701.83 456.275 704.379 446.929 698.856Z" fill="white"/>
<path d="M448.203 700.556C448.628 706.504 449.053 712.026 449.053 717.974C448.628 720.523 449.477 723.072 451.177 725.196C456.7 730.719 464.347 727.321 466.471 720.523C469.869 713.726 472.843 706.504 472.843 698.857L475.817 700.981C466.471 702.68 456.7 705.229 447.778 701.406C447.778 701.406 448.203 700.981 448.203 700.556ZM446.079 696.732C446.928 696.732 448.628 697.157 449.477 698.007C457.124 703.53 466.896 700.981 474.543 696.732C475.817 695.883 477.941 697.157 477.517 698.857C477.092 708.628 473.268 717.974 468.17 726.471C463.497 732.843 453.726 733.268 448.203 727.745C445.654 725.196 444.379 720.948 444.804 717.549C444.804 710.327 445.654 703.53 446.079 696.732Z" fill="black"/>
<path d="M847.124 981.372C854.347 931.242 847.549 895.555 845 884.935C843.726 885.784 842.876 887.059 841.602 887.908C840.327 889.183 839.053 890.033 837.778 891.307C840.327 904.902 845 937.189 838.628 980.098C835.654 1000.07 834.804 1031.5 834.379 1068.04C833.53 1103.3 822.484 1191.24 809.314 1274.51C812.288 1273.66 815.262 1272.81 818.236 1272.39C831.405 1189.97 842.026 1103.73 842.876 1068.46C843.726 1031.93 844.151 1000.91 847.124 981.372Z" fill="black"/>
<path d="M1224.38 358.137C1482.25 854.771 1028.95 1415.13 488.562 1278.33C245.98 1218.01 50.9803 1007.71 10.6208 760.882C-35.2615 515.327 75.6208 251.503 282.941 112.582C567.157 -82.8433 960.98 -17.8433 1164.48 261.699C1165.75 262.974 1165.33 265.098 1163.63 266.372C1162.35 267.647 1160.23 267.222 1158.95 265.523C1130.91 229.412 1099.05 196.699 1064.22 167.385C1006.86 118.529 939.738 80.2939 868.791 54.3789C507.68 -76.4708 111.307 141.046 32.2875 518.725C-56.9282 941.863 302.908 1331.44 731.993 1273.24C1062.94 1231.6 1308.92 926.144 1281.73 593.921C1275.78 513.627 1254.54 434.183 1219.28 361.111C1218.43 359.836 1219.28 358.137 1220.56 357.287C1221.83 356.438 1223.53 356.863 1224.38 358.137Z" fill="black"/>
</g>
</svg>
