<svg width="1304" height="1304" viewBox="0 0 1304 1304" fill="none" xmlns="http://www.w3.org/2000/svg">
<g filter="url(#filter0_d_409_3739)">
<mask id="mask0_409_3739" style="mask-type:alpha" maskUnits="userSpaceOnUse" x="4" y="0" width="1296" height="1296">
<circle cx="651.869" cy="647.869" r="647.869" fill="#D9D9D9"/>
</mask>
<g mask="url(#mask0_409_3739)">
<path d="M1007.04 1182.75C1004.07 1184.87 1000.67 1186.99 997.694 1189.12C994.295 1191.24 991.321 1193.37 987.923 1195.07C984.949 1196.76 982.4 1198.46 979.426 1200.16C979.001 1200.59 978.576 1200.59 978.151 1201.01C968.38 1206.96 958.184 1212.48 947.988 1217.58C945.014 1219.28 941.615 1220.98 938.641 1222.26C938.641 1222.26 938.217 1222.68 937.792 1222.68C934.393 1224.38 930.994 1226.08 927.596 1227.78C920.798 1231.18 913.576 1234.15 906.779 1237.12C903.38 1238.82 899.556 1240.1 896.158 1241.37C892.759 1242.65 888.936 1244.35 885.537 1245.62C882.138 1246.9 878.315 1248.59 874.916 1249.87C874.916 1249.87 874.916 1249.87 874.491 1249.87C871.092 1251.14 867.269 1252.42 863.87 1253.69C856.223 1256.24 848.151 1258.79 840.504 1261.34C837.955 1262.19 834.981 1263.04 832.432 1263.89C824.36 1266.44 816.289 1268.56 808.217 1270.26C805.243 1271.11 802.269 1271.54 798.87 1272.39C791.223 1274.09 783.151 1275.78 775.504 1277.48C773.805 1277.91 772.53 1277.91 770.831 1278.33C768.282 1278.76 765.308 1279.18 762.759 1279.61C758.936 1280.03 755.537 1280.88 751.713 1281.31C750.014 1281.73 748.315 1281.73 746.615 1282.16C744.491 1282.58 741.942 1283.01 739.393 1283.01C732.596 1283.86 725.373 1284.71 718.576 1285.56C716.452 1285.98 713.903 1285.98 711.779 1286.41H711.354C708.38 1286.83 705.406 1286.83 702.432 1287.25C699.458 1287.68 696.485 1287.68 693.511 1287.68C691.811 1287.68 689.687 1288.1 687.988 1288.1C684.589 1288.1 681.615 1288.53 678.642 1288.53C674.393 1288.53 670.57 1288.95 666.321 1288.95C662.073 1288.95 658.249 1288.95 654.001 1288.95C651.027 1288.95 648.053 1288.95 645.079 1288.95C465.798 1286.41 304.785 1210.36 189.655 1089.71C189.655 1089.71 189.655 1089.28 189.23 1089.28C176.485 1077.81 187.53 1016.63 238.936 977.974C303.511 929.118 458.151 898.53 458.151 898.53C458.151 898.53 518.053 888.758 740.243 935.066C870.243 962.255 969.23 1001.76 1024.46 1108.82C1035.93 1130.92 1047.4 1164.9 1007.04 1182.75Z" fill="white"/>
<path d="M741.517 930.392C823.086 946.961 910.177 964.804 977.301 1018.76C999.818 1037.03 1014.69 1063.79 1027.01 1089.71C1032.96 1102.45 1038.9 1115.62 1043.58 1129.64C1046.12 1138.99 1049.95 1149.61 1047.82 1160.65C1047.4 1163.63 1044.85 1167.45 1042.73 1169.58C1032.96 1179.35 1022.33 1185.29 1011.71 1192.94C949.262 1236.27 877.465 1266.86 803.118 1283.01C637.432 1319.12 458.151 1291.08 312.432 1203.99C264.001 1174.67 219.393 1138.99 181.158 1096.93C176.909 1091.83 176.909 1083.33 176.909 1077.81C177.334 1065.07 180.733 1052.75 184.981 1041.27C195.177 1014.93 208.347 988.595 230.863 970.327C247.007 959.281 264.426 949.935 282.269 942.288C338.347 918.497 397.399 901.928 458.151 895.131C463.249 894.706 464.099 901.928 459.001 902.778C400.798 914.673 343.02 932.516 289.066 956.732C269.524 966.503 248.707 975 232.988 990.294C218.118 1006.44 207.497 1026.41 199.001 1046.8C193.478 1059.12 189.654 1078.66 191.354 1088.43C218.118 1120.29 249.556 1148.33 283.543 1172.55C469.622 1302.55 752.138 1311.05 950.112 1202.71C967.955 1192.94 985.373 1181.9 1001.94 1170.42C1010.01 1164.9 1018.51 1160.23 1024.88 1153.86C1025.31 1153.43 1024.88 1153.86 1024.88 1154.28C1024.88 1154.71 1024.46 1155.13 1024.46 1155.13C1024.88 1150.03 1023.18 1143.24 1021.06 1136.44C1013.41 1111.8 1001.09 1085.88 987.922 1063.37C967.105 1029.8 931.844 1008.56 896.158 991.569C871.517 980.098 845.602 971.177 819.262 962.68C792.922 954.183 766.158 946.961 739.393 940.588C732.596 938.889 734.72 929.118 741.517 930.392Z" fill="black"/>
<path d="M1148.09 1446.14H73.6748C73.6748 1446.14 91.0931 1271.11 157.368 1131.34C181.583 1080.36 189.655 1005.59 237.662 972.875C286.943 939.313 391.877 912.548 428.413 908.299C448.805 905.75 444.132 904.051 458.577 900.228C463.25 912.973 510.407 1037.87 623.413 1083.76C720.701 1123.27 778.479 1096.93 787.4 1053.17C792.923 1025.13 775.505 979.247 766.583 964.378C761.485 960.13 758.087 953.757 756.387 947.384L752.988 933.365C760.636 931.665 767.858 929.541 775.505 927.417C779.328 928.267 783.577 927.842 786.975 929.966C822.662 949.509 930.145 977.123 986.224 1036.18C1008.32 1059.12 1042.73 1140.69 1048.25 1193.79C1063.97 1339.51 1148.09 1446.14 1148.09 1446.14Z" fill="white"/>
<path d="M1154.04 1448.69C835.409 1449.54 388.056 1453.37 74.1015 1452.09C70.278 1452.09 67.3041 1448.69 67.729 1444.87C71.5525 1414.71 76.6505 1385.39 82.5982 1355.65C98.3172 1274.51 122.108 1194.64 157.794 1120.29C172.239 1085.46 179.461 1048.92 196.879 1014.93C207.075 994.542 222.369 975 242.762 963.529C275.474 943.987 311.585 931.667 347.696 920.621C369.363 914.248 391.454 908.301 413.546 904.052C424.592 901.503 435.637 901.928 445.834 897.68C451.356 895.556 461.977 889.183 465.376 897.255C496.389 977.549 556.291 1053.59 639.984 1082.06C683.317 1097.78 758.513 1110.95 780.605 1057.84C787.402 1037.88 781.03 1016.21 775.082 996.242C771.683 986.046 767.435 975.425 762.337 966.928L763.611 968.203C755.964 961.83 751.716 951.634 750.441 942.288L748.317 933.791C747.467 930.392 749.592 926.993 752.99 926.144C760.637 924.869 768.284 922.32 775.932 920.196C780.18 920.196 786.977 921.046 792.5 924.02C839.232 945.686 892.337 961.405 936.945 988.595C962.01 1003.46 987.5 1020.88 1003.64 1045.95C1033.38 1095.65 1052.5 1152.16 1058.02 1209.51C1069.92 1291.5 1103.06 1370.1 1150.64 1437.65L1152.34 1439.77L1153.19 1440.62L1153.61 1441.05C1153.61 1441.05 1153.61 1440.62 1154.04 1441.9C1154.46 1444.44 1154.46 1447.42 1154.04 1448.69ZM1142.57 1443.17C1141.72 1444.44 1141.72 1447.42 1142.57 1448.69C1143.42 1449.54 1142.99 1449.12 1142.99 1449.12L1142.57 1448.69L1141.72 1447.42L1140.02 1445.29C1113.25 1404.51 1091.16 1360.75 1075.02 1315.29C1062.27 1281.73 1052.92 1246.9 1047.83 1211.21C1046.13 1198.46 1044 1181.47 1041.03 1169.15C1031.26 1128.37 1015.54 1087.58 993.023 1052.32C985.801 1040.85 975.18 1031.93 964.559 1023.43C930.997 997.941 891.487 982.222 852.402 966.928L812.467 952.059C799.298 946.961 783.579 941.438 775.507 933.366H778.905C771.258 935.915 763.611 938.039 755.964 939.739L760.637 932.091L762.762 940.588C764.461 948.235 766.16 955.033 772.108 960.131C772.533 960.556 772.958 960.98 773.383 961.405C784.853 982.222 791.65 1003.89 795.049 1027.25C802.271 1067.61 776.781 1099.48 737.696 1107.12C683.742 1117.75 619.167 1094.38 574.559 1064.22C518.481 1024.71 478.121 966.078 453.481 902.778L461.128 906.601C457.304 907.876 454.755 909.15 450.932 910.85C447.108 912.974 442.435 914.248 438.186 915.098C438.611 917.647 437.337 910 439.036 920.196C430.964 921.046 424.592 921.471 416.945 923.17C395.278 926.569 373.611 931.667 352.369 937.614C323.905 945.261 295.866 954.608 269.526 966.928C256.356 973.301 243.611 980.098 233.84 989.02C223.644 997.941 215.572 1009.84 208.775 1022.58C188.807 1061.24 179.036 1107.55 158.644 1146.63C116.16 1241.37 92.3695 1344.61 80.8989 1447.84L74.5263 1441.05C382.958 1439.77 829.036 1441.47 1142.57 1443.17Z" fill="black"/>
<path d="M803.121 1168.3C788.252 1172.55 736.422 1118.59 725.801 1109.25C716.03 1120.29 647.206 1198.04 613.219 1192.94C575.834 1187.42 480.246 1123.27 431.814 1022.58C405.049 967.353 404.2 933.791 407.174 915.523C408.448 907.026 410.997 901.503 412.272 898.529C416.52 888.758 447.108 850.947 454.755 851.372V851.797C458.579 892.581 471.749 932.091 493.84 966.503C521.03 1008.56 563.938 1059.12 623.84 1083.33C721.128 1122.84 771.683 1083.76 780.18 1040C785.703 1011.96 775.932 978.823 767.01 963.954C761.912 959.706 758.513 953.333 756.814 946.96L753.415 932.941C761.062 931.242 768.285 929.117 775.932 926.993C778.056 926.143 780.605 925.719 782.729 924.869C784.004 926.568 785.703 928.268 786.978 929.967C804.821 950.359 823.514 978.398 833.71 1025.98C850.703 1102.03 819.69 1163.2 803.121 1168.3Z" fill="black"/>
<path d="M724.526 1106.7C724.526 1106.7 755.539 1124.54 754.69 1139.41C753.84 1154.28 762.762 1201.44 762.762 1201.44" stroke="black" stroke-width="3" stroke-miterlimit="10" stroke-linecap="round" stroke-linejoin="round"/>
<path d="M724.101 1163.2C729.732 1163.2 734.297 1158.64 734.297 1153.01C734.297 1147.38 729.732 1142.81 724.101 1142.81C718.47 1142.81 713.905 1147.38 713.905 1153.01C713.905 1158.64 718.47 1163.2 724.101 1163.2Z" fill="black"/>
<path d="M727.499 1203.14C733.13 1203.14 737.695 1198.57 737.695 1192.94C737.695 1187.31 733.13 1182.74 727.499 1182.74C721.868 1182.74 717.303 1187.31 717.303 1192.94C717.303 1198.57 721.868 1203.14 727.499 1203.14Z" fill="black"/>
<path d="M283.969 1446.14L264.852 1288.53" stroke="#544D4D" stroke-width="3" stroke-miterlimit="10" stroke-linecap="round" stroke-linejoin="round"/>
<path d="M1026.16 1235C1026.16 1235 1013.41 1266.01 1017.24 1297.03C1021.06 1328.04 1032.11 1373.5 1016.39 1446.14" stroke="#544D4D" stroke-width="3" stroke-miterlimit="10" stroke-linecap="round" stroke-linejoin="round"/>
<path d="M454.754 851.372C454.754 851.372 591.976 808.889 783.153 924.444C783.153 924.444 835.832 1066.34 803.12 1088.01C770.408 1109.67 667.597 1111.8 595.8 1088.01C523.578 1064.64 430.963 947.81 454.754 851.372Z" fill="black"/>
<path d="M781.448 1043.4C772.526 1087.16 714.748 1113.5 617.461 1073.99C516.35 1033.2 472.592 935.915 461.546 907.026C521.448 794.869 479.814 717.124 479.814 717.124C617.886 705.229 738.539 866.667 738.539 866.667L757.232 946.536C758.932 953.333 762.33 959.281 767.428 963.529C776.35 979.248 786.971 1015.36 781.448 1043.4Z" fill="white"/>
<path d="M459.423 908.301C467.495 895.98 472.593 881.536 475.992 867.516C482.364 838.203 484.489 808.464 484.913 778.725V767.68C483.639 756.634 479.815 745.163 475.567 734.967C470.044 721.373 490.011 712.876 496.384 726.471C497.234 728.17 497.234 731.144 497.234 732.843C498.508 790.621 501.057 864.967 464.521 912.974C461.972 915.523 456.874 911.699 459.423 908.301Z" fill="black"/>
<path d="M743.212 865.817C749.585 869.641 751.709 874.739 752.559 879.837C755.108 890.033 754.258 901.079 756.807 911.7C758.931 921.896 765.304 931.667 767.003 942.288C769.128 953.334 775.5 976.7 778.049 988.17C778.899 990.719 777.199 993.693 774.226 994.118C772.526 994.543 771.252 994.118 769.977 993.268C764.454 988.595 761.905 983.922 758.507 977.974C752.984 967.778 749.16 958.432 745.762 946.961C742.788 936.765 744.062 925.719 741.513 915.098C739.389 904.902 733.441 895.131 731.317 884.51C730.043 879.412 729.618 873.889 733.441 867.517C735.99 864.968 740.239 864.118 743.212 865.817Z" fill="black"/>
<path d="M773.802 977.974C692.658 973.725 626.384 948.235 561.809 833.104C616.188 881.111 680.338 899.379 747.887 907.876L756.809 946.961C758.508 953.758 768.704 973.725 773.802 977.974Z" fill="black"/>
<path d="M770.405 962.255C784.85 989.444 793.347 1023.43 784.425 1053.59C777.628 1074.84 758.085 1090.56 736.843 1096.5C687.562 1109.67 630.634 1088.86 586.876 1065.49C532.922 1035.33 492.987 984.771 467.497 929.542C465.798 925.294 471.745 921.895 474.294 926.144C483.216 943.987 493.412 961.405 504.882 977.124C516.353 993.268 529.523 1008.14 544.392 1021.31C587.726 1060.39 646.353 1084.61 704.981 1084.61C765.307 1082.91 788.249 1051.05 774.229 992.418C772.105 983.072 768.706 973.301 764.033 965.229C761.484 961.83 767.856 958.006 770.405 962.255Z" fill="black"/>
<path d="M934.816 452.026C942.463 487.712 916.973 525.948 916.973 621.111C916.973 718.399 899.129 824.183 825.633 897.68C762.332 960.98 689.685 958.431 604.293 891.732C592.397 882.386 550.763 850.948 540.142 840.327C527.822 828.007 521.025 819.085 515.077 809.739C509.979 801.242 511.254 751.961 504.031 740.49C485.339 709.477 481.515 743.039 457.299 715.85C423.737 679.314 383.378 605.817 403.345 475.817C435.633 265.098 602.593 240.458 726.221 263.824C850.698 287.614 914.424 358.137 934.816 452.026Z" fill="white"/>
<path d="M478.541 753.66C468.77 737.516 456.449 723.072 444.979 708.202C433.508 692.484 424.162 675.915 416.515 658.072C373.181 553.137 379.554 415.915 456.449 327.549C509.129 267.222 592.397 247.255 668.868 251.503C745.338 256.176 824.783 275.719 881.286 330.948C913.998 362.81 934.815 405.294 944.162 449.477C947.136 463.497 945.011 478.791 941.613 491.961C931.842 528.921 922.495 564.183 921.645 602.418C922.07 659.346 920.371 717.549 903.802 772.353C891.907 808.889 877.887 845.425 855.796 877.287C832.855 909.575 798.443 935.49 758.933 943.137C679.489 959.281 605.142 909.15 552.462 854.771C550.338 852.222 553.312 849.248 555.861 850.948C586.024 873.889 617.038 895.131 650.6 909.575C747.462 954.183 827.757 912.974 870.24 819.51C905.926 751.536 916.123 678.039 913.149 601.993C913.149 582.876 913.998 563.758 916.547 544.64C919.096 517.026 928.443 489.412 928.018 462.222C920.796 418.039 900.404 375.555 869.815 342.843C797.168 265.948 657.822 243.431 560.109 278.268C444.979 319.052 413.966 435.033 407.593 545.915C403.345 612.189 422.887 677.189 473.018 722.647L492.985 743.464C499.783 752.81 485.338 763.856 478.541 753.66Z" fill="black"/>
<path d="M528.672 618.562C528.672 618.562 515.502 554.837 453.476 562.484C399.946 569.281 381.254 697.582 502.757 733.268" fill="white"/>
<path d="M497.234 677.614C487.463 672.092 480.666 662.745 480.241 651.275C480.666 642.778 481.94 633.007 479.816 624.51C478.541 616.438 470.045 614.314 463.672 614.739C456.875 616.013 452.626 624.51 451.352 631.307C451.352 631.732 450.927 633.007 450.927 633.431C450.502 635.556 447.103 635.556 446.254 633.431C440.731 616.863 453.051 598.595 470.894 600.719C495.96 602.418 499.358 628.758 494.685 648.726C492.136 657.222 495.535 664.869 500.208 672.092L501.058 673.366C503.182 675.915 499.783 679.314 497.234 677.614Z" fill="black"/>
<path d="M837.103 573.529C843.476 603.693 855.371 631.732 870.241 658.072C883.411 690.359 849.424 720.947 819.26 719.673C815.862 719.673 815.437 715 818.411 714.15C837.528 708.202 854.947 695.457 857.92 675.915C859.195 669.967 857.496 664.869 854.522 659.771C840.502 633.431 832.005 603.268 834.13 573.529C834.13 571.405 837.103 571.405 837.103 573.529Z" fill="black"/>
<path d="M526.549 618.987C516.777 593.921 495.536 570.13 467.072 570.555C464.523 570.13 460.274 570.98 457.725 570.98C450.503 571.405 444.555 573.954 439.032 579.052C411.843 606.241 416.516 654.248 438.608 684.411C446.255 695.032 456.026 704.379 467.072 712.026C478.117 719.673 490.438 725.621 503.608 730.719C506.581 731.568 505.307 736.241 502.333 735.817C473.869 729.869 446.679 715.849 427.987 692.483C399.098 657.647 393.15 599.444 427.562 565.457C435.209 558.66 445.83 553.562 456.451 553.562C459.849 553.562 464.947 552.712 468.346 553.562C486.189 554.411 503.183 563.333 514.228 577.353C524 589.248 529.523 603.692 531.222 618.137C531.222 620.686 527.398 621.536 526.549 618.987Z" fill="black"/>
<path d="M795.044 760.457C795.469 767.255 790.371 779.15 781.024 787.647C733.018 758.333 711.351 773.627 711.351 773.627C694.358 747.712 698.181 712.451 739.39 739.215C767.854 757.908 785.697 760.882 795.044 760.457Z" fill="black"/>
<path d="M780.599 788.072C770.403 796.993 755.109 802.516 734.292 794.019C724.521 790.196 716.873 782.549 710.926 774.052C711.351 774.052 732.592 758.758 780.599 788.072Z" fill="white"/>
<path d="M803.116 759.183C803.116 759.183 785.273 768.954 739.39 739.64C684.586 704.379 695.632 778.3 734.292 794.019C774.652 810.588 795.469 774.477 795.044 760.882" stroke="black" stroke-width="3" stroke-miterlimit="10" stroke-linecap="round" stroke-linejoin="round"/>
<path d="M711.354 774.052C711.354 774.052 733.02 758.758 781.027 788.072" stroke="black" stroke-width="3" stroke-miterlimit="10" stroke-linecap="round" stroke-linejoin="round"/>
<path d="M698.607 586.7C698.607 587.125 698.607 587.549 698.607 587.549L698.182 599.445C697.758 609.641 689.261 617.288 679.065 616.863C668.869 616.438 661.222 607.517 662.071 597.746L662.496 585.85C662.496 583.726 663.346 581.177 664.196 579.478L698.182 581.177C698.182 582.876 698.607 584.576 698.607 586.7Z" fill="black"/>
<path d="M876.187 596.046L875.763 607.092C875.338 616.438 867.266 623.66 857.919 623.236C848.573 622.811 841.351 614.739 841.776 605.392L842.2 594.347C842.2 592.222 842.625 590.098 843.475 588.399L875.338 589.673C875.763 591.798 876.187 593.922 876.187 596.046Z" fill="black"/>
<path d="M741.09 528.497C750.436 529.771 757.658 520 754.26 510.654C752.56 505.556 749.586 500.883 744.913 497.909C730.469 488.987 676.514 488.137 648.05 508.53C622.56 527.222 698.606 522.549 741.09 528.497Z" fill="black"/>
<path d="M858.769 533.17C851.122 533.17 846.449 523.399 850.273 515.327C852.397 511.079 855.371 507.255 859.619 505.131C872.789 498.758 908.05 502.582 923.769 524.249C937.789 543.366 894.031 532.745 858.769 533.17Z" fill="black"/>
<path d="M725.793 586.699L655.695 585.425C647.199 585 647.623 572.255 656.12 572.68L726.218 577.778C732.166 578.203 731.741 586.699 725.793 586.699Z" fill="black"/>
<path d="M894.032 593.921L842.202 594.771C833.706 594.771 833.281 582.451 841.777 582.026C842.202 582.026 842.202 582.026 842.627 582.026L894.457 587.549C898.281 587.974 897.856 593.496 894.032 593.921Z" fill="black"/>
<path d="M648.477 243.006C397.399 237.908 371.909 448.202 387.628 573.529C405.046 712.875 488.314 767.679 488.314 767.679L493.837 730.719C493.837 730.719 473.869 723.921 454.752 709.902C388.477 659.771 408.87 568.431 453.902 562.908C498.935 556.96 518.477 589.673 525.275 607.516C549.066 528.921 515.504 509.379 549.066 453.725C654 340.294 727.072 416.764 778.477 431.633C834.556 447.352 871.517 429.509 892.334 409.542C907.203 395.098 926.321 422.287 926.321 422.287C926.321 422.287 898.706 248.104 648.477 243.006Z" fill="black"/>
<path d="M875.344 656.797C863.873 642.778 849.004 633.006 831.161 632.581C812.468 632.157 783.154 636.405 753.841 659.771C715.605 690.359 639.135 685.686 608.971 682.712C600.475 681.863 592.403 686.111 588.579 693.758C580.082 710.751 568.612 746.013 574.135 802.941C581.357 880.686 644.658 951.209 733.873 945.261C851.128 938.039 919.527 843.725 923.775 717.549C922.926 682.712 902.109 689.934 875.344 656.797Z" fill="white"/>
<path d="M871.944 659.346C862.173 647.026 848.578 637.255 832.435 636.405C805.67 635.13 778.905 644.902 757.663 661.895C752.141 666.143 745.768 670.392 739.395 673.79C704.559 690.359 664.199 691.209 626.389 689.509C618.742 689.509 610.67 687.385 602.598 688.235C597.5 689.085 593.252 693.333 591.127 698.431C572.859 740.915 572.435 801.666 589.003 845C602.598 879.836 628.938 909.575 662.5 926.143C688.84 939.313 719.428 942.712 748.742 938.888C754.265 938.464 767.435 935.49 772.958 934.64C775.931 933.79 789.526 929.542 792.5 928.692C795.049 927.843 801.422 924.869 803.546 924.019C864.722 897.254 902.108 833.954 912.304 769.804C914.428 759.183 915.703 748.137 916.552 737.091C916.977 726.045 919.101 715 916.127 705.653C913.578 695.457 904.657 690.784 896.585 683.987C887.663 676.339 879.167 668.268 871.944 659.346ZM878.317 654.248C888.938 667.843 903.382 674.64 916.552 685.686C931.422 698.006 928.448 720.522 927.173 737.091C927.173 741.764 925.474 748.987 925.049 754.085C917.827 804.215 897.435 853.496 862.598 890.882C814.167 942.287 733.448 966.503 665.899 940.588C601.748 915.098 565.637 848.823 566.487 781.699C566.062 753.235 569.461 724.346 580.507 697.581C581.356 695.457 582.206 693.758 583.056 691.634C587.304 682.712 596.65 676.764 606.422 677.189C635.31 680.163 664.624 681.437 693.088 677.189C714.755 674.215 735.997 668.268 752.565 654.673C778.48 634.706 818.415 620.686 850.278 632.581C861.748 637.679 870.67 645.326 878.317 654.248Z" fill="black"/>
<path d="M719.425 680.589C763.608 696.732 848.575 729.445 893.608 718.399C901.255 716.275 907.203 711.602 910.602 703.955C911.451 701.406 915.275 702.68 914.85 704.804C903.804 756.634 798.445 717.125 766.157 705.229C749.589 698.857 733.445 692.059 717.726 683.987C715.177 683.562 716.876 679.739 719.425 680.589Z" fill="black"/>
<path d="M647.205 738.366C720.701 771.928 827.335 818.235 906.355 785.523C908.479 784.673 910.603 787.222 908.904 788.921C860.473 835.229 759.361 798.693 706.257 774.902C685.015 765.131 664.623 754.51 645.08 742.189C642.956 740.915 644.655 737.091 647.205 738.366Z" fill="black"/>
<path d="M641.681 811.863C671.42 833.954 706.257 849.673 741.943 858.595C763.185 863.693 785.276 867.091 807.368 866.667C827.335 867.091 846.878 863.693 866.845 864.542C868.119 864.542 868.969 865.392 868.969 866.667C868.969 867.516 868.544 868.366 867.695 868.366C863.021 870.49 857.923 872.19 853.25 873.464C838.381 878.137 822.662 878.987 807.368 878.562C761.061 878.562 715.178 864.967 675.668 841.176C662.498 833.105 650.178 824.608 638.708 813.987C637.008 813.137 639.557 810.163 641.681 811.863Z" fill="black"/>
<path d="M666.321 691.209C651.877 717.124 646.779 747.713 643.38 777.026C637.433 826.307 648.054 877.288 670.145 921.896C671.42 924.02 668.021 926.569 666.321 924.02C635.308 870.491 625.537 805.915 639.982 745.589C643.38 730.719 648.054 715.85 654.851 701.83C657.4 697.157 659.524 692.909 662.923 688.66C663.773 687.811 665.047 687.386 665.897 688.236C666.746 689.085 667.171 690.36 666.321 691.209Z" fill="black"/>
<path d="M601.746 698.856C576.256 678.889 555.014 655.523 536.322 629.183C529.949 620.686 524.851 611.34 519.328 602.418C518.478 601.144 518.903 599.02 520.603 598.17C521.877 597.32 524.001 597.745 524.851 599.444C541.42 625.784 561.812 649.15 585.178 669.543C592.825 676.34 601.322 683.137 609.394 688.66C616.191 693.333 608.969 703.954 601.746 698.856Z" fill="black"/>
<path d="M500.211 731.993C517.204 783.399 552.89 826.307 596.224 858.17C603.021 863.268 595.374 873.464 588.577 868.366C545.243 833.954 509.557 787.647 494.263 733.693C492.988 729.869 498.936 727.745 500.211 731.993Z" fill="black"/>
<path d="M1228.38 358.137C1486.25 854.771 1032.95 1415.13 492.562 1278.33C249.98 1218.01 54.9803 1007.71 14.6208 760.882C-31.2615 515.327 79.6208 251.503 286.941 112.582C571.157 -82.8433 964.98 -17.8433 1168.48 261.699C1169.75 262.974 1169.33 265.098 1167.63 266.372C1166.35 267.647 1164.23 267.222 1162.95 265.523C1134.91 229.412 1103.05 196.699 1068.22 167.385C1010.86 118.529 943.738 80.2939 872.791 54.3789C511.68 -76.4708 115.307 141.046 36.2875 518.725C-52.9282 941.863 306.908 1331.44 735.993 1273.24C1066.94 1231.6 1312.92 926.144 1285.73 593.921C1279.78 513.627 1258.54 434.183 1223.28 361.111C1222.43 359.836 1223.28 358.137 1224.56 357.287C1225.83 356.438 1227.53 356.863 1228.38 358.137Z" fill="black"/>
</g>
</g>
<defs>
<filter id="filter0_d_409_3739" x="0" y="0" width="1308" height="1308" filterUnits="userSpaceOnUse" color-interpolation-filters="sRGB">
<feFlood flood-opacity="0" result="BackgroundImageFix"/>
<feColorMatrix in="SourceAlpha" type="matrix" values="0 0 0 0 0 0 0 0 0 0 0 0 0 0 0 0 0 0 127 0" result="hardAlpha"/>
<feOffset dy="4"/>
<feGaussianBlur stdDeviation="2"/>
<feComposite in2="hardAlpha" operator="out"/>
<feColorMatrix type="matrix" values="0 0 0 0 0 0 0 0 0 0 0 0 0 0 0 0 0 0 0.25 0"/>
<feBlend mode="normal" in2="BackgroundImageFix" result="effect1_dropShadow_409_3739"/>
<feBlend mode="normal" in="SourceGraphic" in2="effect1_dropShadow_409_3739" result="shape"/>
</filter>
</defs>
</svg>
