<svg xmlns="http://www.w3.org/2000/svg" xmlns:xlink="http://www.w3.org/1999/xlink" version="1.1" id="Layer_1" x="0px" y="0px" width="400px" height="400px" viewBox="0 0 400 400" enable-background="new 0 0 400 400" xml:space="preserve">
<g>
	<circle fill="#0B4870" cx="133.201" cy="314.669" r="23.439"/>
	<circle fill="#0B4870" cx="302.274" cy="314.669" r="23.439"/>
	<path fill="#D3D3D3" d="M326.599,276.427c0,2.842-1.153,5.428-3.03,7.307c-1.863,1.881-4.449,3.031-7.312,3.031H143.237   c-5.052,0-9.326-3.238-10.862-7.756l-0.189-0.553l-3.93-12.373L77.199,105.765l-2.293-7.205   c-1.724-5.445,1.273-11.256,6.722-12.996c1.034-0.33,2.102-0.486,3.136-0.486c4.378,0,8.447,2.795,9.862,7.209l1.882,5.906   l6.666,20.916l6.588,20.684l33.665,105.742l4.189,13.135c1.431,3.947,4.981,6.877,9.289,7.414h159.351   C321.965,266.083,326.599,270.7,326.599,276.427z"/>
	<path fill="#2A94F4" d="M326.595,146.206v72.23c0,14.961-12.113,27.094-27.074,27.094H143.426l-33.661-105.742h214.134   c0.647,0,1.277-0.057,1.897-0.17C326.322,141.724,326.595,143.933,326.595,146.206z"/>
	<path fill="#0E538C" d="M100.924,94.298c0,2.863-1.154,5.449-3.033,7.311c-1.862,1.879-4.448,3.033-7.31,3.033H44.9   c-5.707,0-10.343-4.637-10.343-10.344c0-2.861,1.154-5.447,3.033-7.309c1.862-1.879,4.447-3.033,7.31-3.033h45.681   C96.288,83.956,100.924,88.595,100.924,94.298z"/>
	<g>
		<g>
			<path fill="#0E538C" d="M261.319,167.03v50.148c0,5.703-4.643,10.336-10.348,10.336c-2.856,0-5.44-1.156-7.301-3.035     c-1.879-1.852-3.036-4.445-3.036-7.301V167.03c0-5.703,4.633-10.336,10.337-10.336c2.867,0,5.45,1.156,7.312,3.035     C260.163,161.589,261.319,164.175,261.319,167.03z"/>
		</g>
		<g>
			<path fill="#0E538C" d="M172.032,167.03v50.148c0,5.703-4.633,10.336-10.347,10.336c-2.857,0-5.441-1.156-7.302-3.035     c-1.879-1.852-3.036-4.445-3.036-7.301V167.03c0-5.703,4.633-10.336,10.337-10.336c2.866,0,5.451,1.156,7.321,3.035     C170.876,161.589,172.032,164.175,172.032,167.03z"/>
			<path fill="#0E538C" d="M216.004,167.03v50.148c0,5.703-4.643,10.336-10.347,10.336c-2.856,0-5.441-1.156-7.312-3.035     c-1.879-1.852-3.026-4.445-3.026-7.301V167.03c0-5.703,4.633-10.336,10.337-10.336c2.866,0,5.45,1.156,7.312,3.035     C214.849,161.589,216.004,164.175,216.004,167.03z"/>
			<path fill="#0E538C" d="M307.978,167.03v50.148c0,5.703-4.632,10.336-10.337,10.336c-2.856,0-5.45-1.156-7.312-3.035     c-1.88-1.852-3.035-4.445-3.035-7.301V167.03c0-5.703,4.642-10.336,10.347-10.336c2.856,0,5.45,1.156,7.312,3.035     C306.822,161.589,307.978,164.175,307.978,167.03z"/>
		</g>
	</g>
	<path fill="#0E538C" d="M163.76,277.323c2.061,1.988,3.118,4.613,3.155,7.258c0.059,2.645-0.906,5.309-2.894,7.367l-18.445,19.117   c-3.961,4.105-10.518,4.221-14.624,0.26c-2.061-1.988-3.122-4.613-3.155-7.258c-0.059-2.646,0.907-5.309,2.892-7.367l18.446-19.115   C153.096,273.479,159.654,273.362,163.76,277.323z"/>
	<path fill="#0E538C" d="M302.938,274.429c2.862-0.043,5.463,1.076,7.353,2.924c1.907,1.834,3.1,4.404,3.141,7.266l0.391,26.562   c0.083,5.703-4.484,10.406-10.19,10.49c-2.862,0.043-5.466-1.072-7.352-2.924c-1.908-1.834-3.101-4.404-3.143-7.264l-0.39-26.561   C292.663,279.218,297.232,274.513,302.938,274.429z"/>
	<path fill="#0E538C" d="M334.235,129.45c0,2.857-1.156,5.451-3.036,7.312c-1.438,1.455-3.308,2.471-5.403,2.855   c-0.62,0.113-1.25,0.17-1.897,0.17H109.765l-6.588-20.676h220.722C329.602,119.112,334.235,123.747,334.235,129.45z"/>
	<circle fill="#FFBE55" cx="317.145" cy="110.188" r="48.298"/>
	<path fill="#F7F7F7" d="M343.796,110.188c0,2.303-0.93,4.379-2.438,5.871c-1.494,1.512-3.577,2.439-5.871,2.439h-10.037v10.037   c0,4.58-3.721,8.301-8.309,8.301c-2.294,0-4.37-0.928-5.862-2.439c-1.511-1.492-2.439-3.568-2.439-5.861v-10.037h-10.036   c-4.582,0-8.309-3.729-8.309-8.311c0-2.293,0.927-4.375,2.438-5.871c1.494-1.508,3.57-2.438,5.871-2.438h10.036V91.851   c0-4.588,3.722-8.309,8.302-8.309c2.303,0,4.377,0.928,5.871,2.438c1.51,1.494,2.438,3.57,2.438,5.871v10.029h10.037   C340.066,101.88,343.796,105.608,343.796,110.188z"/>
</g>
</svg>