<svg xmlns="http://www.w3.org/2000/svg" xmlns:xlink="http://www.w3.org/1999/xlink" version="1.1" x="0px" y="0px" viewBox="0 0 1920 1080" style="enable-background:new 0 0 1920 1080;" xml:space="preserve">
<style type="text/css">
	.st0{opacity:0.11;fill:#FFBE55;}
	.st1{opacity:0.2;fill:#FFBE55;}
	.st2{fill:#FFE3CA;}
	.st3{fill:#FCD2B1;}
	.st4{opacity:0.26;fill:#FFFFFF;}
	.st5{fill:#0B4870;}
	.st6{fill:#2A94F4;}
	.st7{fill:#0E538C;}
	.st8{fill:#FFBE55;}
</style>
<g id="Background">
	<path class="st0" d="M1375.24,1079.67H639.37V566.34c0-203.2,164.73-367.93,367.93-367.93h0c203.2,0,367.93,164.73,367.93,367.93   V1079.67z"/>
	<path class="st0" d="M1691.89,1152.95H956.02v-143.53c0-203.2,164.73-367.93,367.93-367.93h0c203.2,0,367.93,164.73,367.93,367.93   V1152.95z"/>
	<path class="st1" d="M1040.65,1079.67H728.59v0c0-86.17,69.86-156.03,156.03-156.03h0C970.79,923.64,1040.65,993.5,1040.65,1079.67   L1040.65,1079.67z"/>
</g>
<g id="Magnifying_Glass">
	<circle class="st2" cx="838.45" cy="222.98" r="183.47"/>
	<g>
		<g>
			<path class="st3" d="M716.23,249.69c0.91-0.18,1.73-0.56,2.43-1.08c1.81-1.35,2.79-3.67,2.32-6.03     c-9.23-46.49,9.36-94.8,47.36-123.08c2.68-1.99,3.23-5.78,1.24-8.46c-1.99-2.68-5.78-3.24-8.46-1.24     c-20.95,15.59-36.84,36.69-45.95,61.04c-8.88,23.7-10.97,49.32-6.05,74.1C709.77,248.21,712.95,250.34,716.23,249.69z"/>
			<path class="st3" d="M726.79,262.71c-1.37-3.05-4.95-4.4-8-3.03c-3.05,1.37-4.4,4.95-3.03,8c11.99,26.62,24.6,42.3,32.95,52.68     c1.8,2.24,3.36,4.18,4.62,5.86c1.99,2.68,5.78,3.24,8.46,1.24c2.68-1.99,3.24-5.78,1.24-8.46c-1.39-1.87-3.01-3.89-4.89-6.22     C750.18,302.88,738.15,287.92,726.79,262.71z"/>
			<path class="st3" d="M809.78,86.87c-10.65,2.6-20.97,6.51-30.68,11.61c-2.96,1.57-4.09,5.21-2.54,8.17     c1.55,2.96,5.21,4.09,8.17,2.54c8.84-4.65,18.24-8.2,27.92-10.57c48.28-11.79,98.64,6.34,128.3,46.21     c16.6,22.3,41.03,64.99,40.31,91.15c-0.09,3.34,2.54,6.12,5.88,6.21c1.41,0.04,2.72-0.41,3.77-1.19     c1.43-1.07,2.38-2.76,2.44-4.69c0.87-31.53-27.55-78.35-42.69-98.71C918.09,93.83,862.79,73.92,809.78,86.87z"/>
			<path class="st3" d="M764.47,270.72c-11.37-14.7-19.59-25.32-18.76-55.82c0.09-3.34-2.54-6.12-5.88-6.21     c-3.34-0.09-6.12,2.54-6.21,5.88c-0.95,34.82,9.36,48.13,21.28,63.55c11.46,14.81,24.45,31.6,33.58,73.54     c0.71,3.26,3.93,5.33,7.2,4.62c0.87-0.19,1.65-0.56,2.32-1.05c1.85-1.37,2.82-3.75,2.3-6.14     C790.58,304.47,776.1,285.76,764.47,270.72z"/>
			<path class="st3" d="M936.94,179.59c0.36-0.17,0.69-0.37,0.99-0.6c2.28-1.69,3.11-4.82,1.83-7.47c-3-6.22-6.62-12.2-10.77-17.79     c-35.7-47.97-103.77-57.95-151.74-22.26c-18.22,13.56-31.52,32.12-38.46,53.67c-1.02,3.18,0.72,6.58,3.9,7.61     c3.18,1.02,6.59-0.72,7.61-3.9c6.17-19.14,17.98-35.63,34.17-47.67c42.62-31.72,103.1-22.85,134.82,19.77     c3.7,4.97,6.92,10.29,9.58,15.81C930.32,179.77,933.93,181.04,936.94,179.59z"/>
			<path class="st3" d="M877.37,145.17c-3.04-1.39-6.63-0.06-8.02,2.97c-1.39,3.04-0.06,6.63,2.97,8.02     c33.93,15.58,70.83,76.5,69.53,139.01c-0.07,3.34,2.58,6.1,5.92,6.17c1.4,0.03,2.69-0.42,3.73-1.19c1.45-1.08,2.4-2.79,2.44-4.73     C955.36,227.22,915.5,162.67,877.37,145.17z"/>
			<path class="st3" d="M845.09,149.62c3.33,0.12,6.14-2.5,6.25-5.84c0.11-3.34-2.5-6.14-5.84-6.25     c-18.45-0.64-36.78,5.1-51.62,16.14c-19.12,14.23-30.92,34.05-33.22,55.83c-2.51,23.76,6.47,48.06,25.97,70.27     c2.09,2.39,5.65,2.73,8.15,0.87c0.13-0.1,0.26-0.2,0.39-0.31c2.51-2.2,2.76-6.02,0.55-8.53c-17.21-19.61-25.17-40.71-23.03-61.02     c1.94-18.38,12.03-35.21,28.41-47.4C813.93,153.83,829.14,149.07,845.09,149.62z"/>
			<path class="st3" d="M788.81,224.6c0.72,11.04,4.75,21.47,11.66,30.16c2.04,2.56,5.73,3.03,8.34,1.09     c0.05-0.04,0.1-0.08,0.16-0.12c2.61-2.08,3.05-5.88,0.97-8.5c-5.37-6.75-8.5-14.85-9.06-23.42c-0.22-3.33-3.1-5.86-6.43-5.64     C791.11,218.39,788.59,221.27,788.81,224.6z"/>
			<path class="st3" d="M802.01,205.19c2.72-8.23,7.85-15.32,14.83-20.52c18.64-13.87,45.08-9.99,58.95,8.65     c1.99,2.68,5.78,3.23,8.46,1.24c2.68-1.99,3.24-5.78,1.24-8.46c-17.85-23.99-51.88-28.98-75.87-11.13     c-8.98,6.69-15.59,15.82-19.09,26.42c-1.05,3.17,0.67,6.59,3.84,7.64C797.54,210.08,800.96,208.36,802.01,205.19z"/>
			<path class="st3" d="M867.03,317.99c0.77-54.44-24.21-78.2-39.13-92.39l-0.34-0.32c-2.84-2.7-3.26-6.18-3.11-8.63     c0.29-4.84,3.06-9.89,7.06-12.87c7.04-5.24,17.03-3.77,22.27,3.27c1.99,2.68,5.78,3.24,8.46,1.24c2.68-1.99,3.24-5.78,1.24-8.46     c-9.22-12.39-26.8-14.97-39.19-5.75c-6.84,5.09-11.4,13.46-11.91,21.84c-0.43,7.08,2,13.52,6.85,18.12l0.34,0.32     c13.49,12.83,36.07,34.3,35.37,83.46c-0.05,3.34,2.62,6.08,5.96,6.13c1.38,0.02,2.66-0.43,3.69-1.19     C866.05,321.67,867.01,319.94,867.03,317.99z"/>
			<path class="st3" d="M877.43,280.75c0.96-0.17,1.82-0.56,2.55-1.1c1.78-1.32,2.76-3.58,2.35-5.91     c-7.25-40.73-35.84-59.57-37.06-60.35c-2.8-1.8-6.53-0.99-8.34,1.8c-1.81,2.8-1.02,6.54,1.78,8.36     c0.25,0.17,25.42,16.96,31.71,52.31C871,279.14,874.14,281.33,877.43,280.75z"/>
			<path class="st3" d="M909.28,310.49c-3.52-72.22-32.11-98.27-33.32-99.35c-2.5-2.21-6.32-1.98-8.53,0.53     c-2.21,2.5-1.97,6.32,0.53,8.53c0.26,0.23,25.98,23.7,29.25,90.87c0.16,3.34,3,5.91,6.33,5.75c1.24-0.06,2.38-0.49,3.31-1.18     C908.41,314.48,909.38,312.58,909.28,310.49z"/>
			<path class="st3" d="M897.46,200.13c-2.39-2.33-6.22-2.29-8.55,0.1c-2.33,2.39-2.29,6.22,0.1,8.55     c0.36,0.35,35.91,36.06,30.78,115.76c-0.21,3.33,2.31,6.21,5.65,6.42c1.49,0.1,2.89-0.36,4-1.18c1.37-1.02,2.31-2.62,2.43-4.47     C937.34,240.14,899.09,201.72,897.46,200.13z"/>
			<path class="st3" d="M822.24,260.3c-2.9-1.66-6.59-0.65-8.25,2.25c-1.66,2.9-0.65,6.59,2.25,8.25     c0.21,0.12,20.97,13.79,15.91,75.83c-0.27,3.33,2.21,6.25,5.53,6.52c1.52,0.12,2.96-0.33,4.1-1.17c1.35-1,2.27-2.56,2.42-4.36     C849.88,278.17,825.09,261.92,822.24,260.3z"/>
			<path class="st3" d="M879.09,284.66c-3.24,0.8-5.22,4.08-4.42,7.32c0.06,0.26,6.4,26.37,0.71,46.54     c-0.91,3.21,0.96,6.56,4.18,7.46c1.88,0.53,3.8,0.11,5.26-0.97c1.03-0.77,1.83-1.87,2.21-3.21c6.55-23.22-0.31-51.53-0.61-52.73     C885.61,285.84,882.34,283.86,879.09,284.66z"/>
			<path class="st3" d="M942.85,187.15c-2.82,1.82-3.63,5.54-1.82,8.36c0.22,0.34,21.99,34.7,22.53,72.31     c0.05,3.34,2.79,6.01,6.13,5.96c1.32-0.02,2.53-0.46,3.52-1.19c1.5-1.12,2.47-2.92,2.44-4.94     c-0.59-41.03-23.47-77.14-24.45-78.66C949.4,186.17,945.66,185.35,942.85,187.15z"/>
			<path class="st3" d="M804.14,289.97c-2.26,1.57-3.18,4.47-2.22,7.05c2.5,6.75,7.01,22.63,10,54.83c0.31,3.33,3.26,5.77,6.58,5.46     c1.2-0.11,2.28-0.56,3.16-1.25c1.57-1.23,2.5-3.2,2.3-5.33c-3.03-32.59-7.61-49.62-10.71-57.93     C811.88,289.11,807.38,287.71,804.14,289.97L804.14,289.97z"/>
		</g>
	</g>
	<path class="st4" d="M1021.92,222.98c0,101.33-82.14,183.47-183.47,183.47S654.99,324.3,654.99,222.98S632.3,382.31,842.36,382.31   S1021.92,121.65,1021.92,222.98z"/>
	<g>
		<g>
			<g>
				<g>
					<path class="st5" d="M1109.44,784.91c18.83-9.23,31.39-22.23,22.16-41.07l-90.18-184.02c-9.23-18.83-27.2-16.87-46.03-7.65       c-18.83,9.23-31.39,22.23-22.16,41.07l90.18,184.02C1072.63,796.09,1090.61,794.13,1109.44,784.91z"/>
				</g>
			</g>
		</g>
		<path class="st6" d="M988.24,556.08c16-6.11,30.57-5.42,38.57,10.9L1116.99,751c8,16.32-0.38,28.26-15.01,37.16    c-16,6.11-30.57,5.42-38.57-10.9l-90.18-184.02C965.23,576.92,973.61,564.98,988.24,556.08z"/>
		<g>
			<g>
				<path class="st7" d="M1003.24,568.21c11.24-5.51,20.66-9.35,15.15-20.59l-69.49-141.8c-5.51-11.24-19.09-15.89-30.33-10.38      c-11.24,5.51-15.89,19.09-10.38,30.33l69.49,141.8C983.19,578.81,992,573.71,1003.24,568.21z"/>
			</g>
		</g>
		<path class="st7" d="M948.9,405.81l24.45,49.89c-1.71,1.66-3.66,3.09-5.83,4.15l-27.48,13.47c-2.36,1.16-4.9,1.87-7.48,2.16    l-24.37-49.72c-1.96-4.01-2.62-8.31-2.16-12.44l34.36-16.84C943.94,398.66,946.94,401.81,948.9,405.81z"/>
		<path class="st6" d="M910.79,12.25C853.88-7.23,792.79-3.38,738.78,23.09C627.29,77.73,581.03,212.9,635.67,324.4    c44.35,90.51,141.77,138.02,236.52,123.47c2.15,1.27,4.52,2.22,7.07,2.73l37.88,7.57c4.92,0.98,10.03,0.32,14.54-1.89l27.48-13.47    c4.71-2.31,8.49-6.17,10.69-10.94l15.2-32.9c0.68-1.48,1.17-3.03,1.56-4.6c19.77-17.4,36.05-37.91,48.42-60.43    c34.13-62.14,38.55-139.39,5.05-207.74C1013.62,72.19,967.7,31.72,910.79,12.25z M999.37,146.16    c43.63,89.04,6.7,196.97-82.32,240.62l-0.07,0.03c-89.04,43.61-196.97,6.67-240.61-82.37c-26.75-54.59-23.22-116.29,4.04-165.92    c17.2-31.32,43.86-57.84,78.32-74.72C847.78,20.16,955.73,57.11,999.37,146.16z"/>
	</g>
	<circle class="st4" cx="728.08" cy="168.3" r="42.7"/>
</g>
<g id="Character_1">
	<path class="st6" d="M947.15,948.89c0,0,29.26-70.41,39.24-94.57c1.51-3.67,2.01-7.66,1.53-11.6   c-6.49-52.46-45.21-97.36-45.21-97.36s-10.55-17.19-23.12-15.63c-3.71,0.46-7.59,2.29-11.18,5.25   c-2.5-16.29-12.85-29.42-40.15-28.7c0,0-40.22,23.8-34.46,129.52c-0.72,20.34-42.69,145.31-42.69,145.31l54.63-0.26l-28.2-16.85   c0,0,46.62-82.7,57.49-102.34c10.87-19.64,21.83-67.68,21.83-67.68s0.71-1.55,1.78-4.18c23.89,22,49.72,64.94,49.72,64.94   L924.71,965.4l50.26-0.04L947.15,948.89z"/>
	<path class="st5" d="M947.15,948.89c0,0-9.94,2.07-18.85-0.25l-3.58,16.76l50.26-0.04L947.15,948.89z"/>
	<path class="st5" d="M817.53,964.01c0,0-12.24,3.23-20.38-0.28c-3.64,10.56-6.06,17.39-6.06,17.39l54.63-0.26L817.53,964.01z"/>
	<path class="st3" d="M965.35,542.41c-1.22,3.36-30.99,92.31-30.99,92.31s18.61,11.29,27.67,1.11   c9.07-10.18,15.65-68.26,15.65-68.26L965.35,542.41z"/>
	<path class="st3" d="M895.04,590.74l9.14,25.73c0,0-1.38,12.1-14.64,12.12c-13.26,0.02-15.34-7.68-15.34-7.68l2.71-30.29   C876.91,590.62,889.43,587.38,895.04,590.74z"/>
	<path class="st3" d="M978.42,612.02l13.21-2.4l9.65-56.32l-4.23-3.01c-2.67-1.9-4.88-4.38-6.46-7.25l-5.22-9.49   c-0.9-1.02,0.04-2.59,1.36-2.27l11.88,5.61c2.91,1.37,6.24-0.91,5.96-4.11c-0.55-6.25-4.7-16.8-4.92-20.52   c-0.35-5.9,7.65-2.99,14.24,5.53c4.92,2.97,8.54,20.99,3.64,31.09c-4.9,10.1-5.53,74.16-4.72,84.48   c0.8,10.31-27.98,16.49-27.98,16.49s-13.75,1.65-17.99-12.78C962.61,622.63,978.42,612.02,978.42,612.02z"/>
	<path class="st8" d="M892.47,610.7c10.55-1.9,23.06-2.59,37.15-0.6c25.24,1.43,48.36,0.76,48.36,0.76s9.84,17.87,6.41,37.83   c0,0-25.43,14.96-49.69,15.51c-2.96,11.32,0.48,62.81,9.68,75.8c-7.28,10.88-67.08,22.86-101.11,6.2   c-5.63-11.43,2.36-59.41,6.44-91.57C854.71,615.3,870.39,614.69,892.47,610.7z"/>
	<path class="st2" d="M900,548.88c0,0,18.62,23.57,16.23,32.47c-2.39,8.89-13.24,17.02-38.66,19.4   c-8.69-1.45-17.88-27.63-17.57-33.07C862.06,532.08,890.75,542.71,900,548.88z"/>
	<path class="st5" d="M876.09,561.36c0,0,33.3-4.79,36.82-21.51c3.52-16.72-23.44-25.8-35.54-20.77c-5.16,2.15-7.81,6.02-10.9,10.38   c-3.47,4.9-7.7,6.5-13.15,9.27c-1.76,0.89-3.52,1.79-5.09,2.98c-8.49,6.41-5.65,14.25-4.39,23.05c1.21,8.45,2.38,17.15,7.79,24.11   c9.42,12.1,25.57,10.52,25.28,1.76C876.61,581.86,867.11,563.28,876.09,561.36z"/>
</g>
<g id="Ladder_Back">
	<path class="st7" d="M1238.79,1079.67h-66.84L1028.8,554.14c-5.59-20.51,9.85-40.72,31.11-40.72h0c14.54,0,27.29,9.74,31.11,23.77   L1238.79,1079.67z"/>
	<path class="st5" d="M1223.89,642.32h-121.96c-10.33,0-18.71-8.37-18.71-18.71v-4.44c0-10.33,8.37-18.71,18.71-18.71h121.96   c10.33,0,18.71,8.37,18.71,18.71v4.44C1242.59,633.94,1234.22,642.32,1223.89,642.32z"/>
	<path class="st5" d="M1259.84,780.23h-121.96c-10.33,0-18.71-8.37-18.71-18.71v-4.44c0-10.33,8.37-18.71,18.71-18.71h121.96   c10.33,0,18.71,8.37,18.71,18.71v4.44C1278.55,771.85,1270.17,780.23,1259.84,780.23z"/>
	<path class="st5" d="M1295.8,918.14h-121.96c-10.33,0-18.71-8.37-18.71-18.71v-4.44c0-10.33,8.37-18.71,18.71-18.71h121.96   c10.33,0,18.71,8.37,18.71,18.71v4.44C1314.51,909.77,1306.13,918.14,1295.8,918.14z"/>
	<path class="st5" d="M1331.76,1056.05h-121.96c-10.33,0-18.71-8.37-18.71-18.71v-4.44c0-10.33,8.37-18.71,18.71-18.71h121.96   c10.33,0,18.71,8.37,18.71,18.71v4.44C1350.46,1047.68,1342.09,1056.05,1331.76,1056.05z"/>
</g>
<g id="Character_2">
	<path class="st8" d="M1122.18,251.4c0,0-26.65,19.83-50.34,45.66c-7.64,8.33-18.4,15.89-29.47,22.31c0,0-12.02,23.42-19.44,34.16   c24.05-6.63,57.88-16.38,57.88-16.38s43.41-22.86,51.77-39.6C1137.28,287.44,1135.88,257.14,1122.18,251.4z"/>
	<g>
		<path class="st6" d="M1093.32,583.94c0,0-16.43-96.14-19.6-115.12c17.41-57.17,73.27-98.29,73.27-98.29s15.25-15.58,28.12-10.9    c3.8,1.38,7.45,4.24,10.52,8.22c6.56-16.57,20.63-27.91,49.22-20.59c0,0,35.85,47.77,4.34,157.8    c-4.14,21.6,10.82,150.4,10.82,150.4l-57.51-13.42l33.77-10.97c0,0-29.23-98.38-35.96-121.69c-6.73-23.31-6.72-76.58-6.72-76.58    s-0.38-1.8-0.87-4.84c-21.32,31.01-68.03,56.47-68.03,56.47l-1.7,122.3l-52.96-12.14L1093.32,583.94z"/>
		<path class="st5" d="M1093.32,583.94c0,0,9.98,4.57,19.92,4.28l-0.26,18.52l-52.96-12.14L1093.32,583.94z"/>
		<path class="st5" d="M1226.26,631.07c0,0,12.13,6.35,21.54,4.61c1.3,12.01,2.2,19.78,2.2,19.78l-57.51-13.42L1226.26,631.07z"/>
		<path class="st8" d="M1188.41,237.02c0,0-15.85-7.71-66.24,14.32c-15.86,6.94,12.35,60.8,17.63,74.57    c8.85,10.15,7.21,44.9,7.21,44.9s57.15,14.73,87.92-22.68C1231.14,336.56,1207.78,253.68,1188.41,237.02z"/>
		<path class="st3" d="M1155.84,218.97l9.78,25c0,0-0.98,11.93-14.02,12.37c-13.04,0.43-15.32-7.07-15.32-7.07l1.72-29.85    C1138.02,219.41,1150.23,215.84,1155.84,218.97z"/>
		<path class="st2" d="M1109.87,192.06c0,0-1.91,29.48,4.99,35.34c6.9,5.87,20.22,6.39,42.13-5.88c6.22-6.03-0.95-32.35-4.24-36.58    C1131.2,157.27,1113.91,181.9,1109.87,192.06z"/>
		<path class="st5" d="M1143.68,193.1c1.38,3.79,0.7,11.16,2.43,11.95c5.26,2.39,0.41-10.16,5.85-8.73    c5.44,1.44,3.18,15.03,8.01,14.68c22.49-1.66,12.35-51.06-12.51-53.96c-46.97-5.48-47.88,29.1-41.45,32.95    C1115.38,195.6,1141.43,186.94,1143.68,193.1z"/>
		<path class="st3" d="M1018.66,294.55l-17.61-16.76c-1.45-1.38-3.83-0.13-3.52,1.85l0,0c0.87,5.5-2.97,10.63-8.49,11.34    l-14.74,1.91c-4.58,0.59-6.37,6.28-2.95,9.39c3.47,3.15,7.05,6.33,8.79,7.62c3.93,2.92,30.88,2.2,35.87-0.99    C1020.99,305.71,1024.09,299.72,1018.66,294.55z"/>
		<path class="st8" d="M1174.42,238.15c25.45-10.03,43.89,25.27,21.54,41.05c-17.3,12.22-54.53,35.77-71.71,37.48    c-24.98,3.73-108.24-7.78-108.24-7.78s-1.02-9.48,2.65-14.35c6.67-0.51,91-10.61,91-10.61s31.79-28.22,50.35-36.52    C1160.45,247.21,1173.97,238.33,1174.42,238.15z"/>
	</g>
	<path class="st8" d="M1174.42,238.15c25.45-10.03,43.89,25.27,21.54,41.05c-17.3,12.22-54.53,35.77-71.71,37.48   c-24.98,3.73-108.24-7.78-108.24-7.78s-1.02-9.48,2.65-14.35c6.67-0.51,91-10.61,91-10.61s31.79-28.22,50.35-36.52   C1160.45,247.21,1173.97,238.33,1174.42,238.15z"/>
</g>
<g id="Ladder_Front">
	<path class="st7" d="M1383.99,1079.67h-66.84L1174,554.14c-5.59-20.51,9.85-40.72,31.11-40.72h0c14.54,0,27.29,9.74,31.11,23.77   L1383.99,1079.67z"/>
</g>
</svg>